<svg width="688.0000000000001" height="784" xmlns="http://www.w3.org/2000/svg" xmlns:undefined="http://www.inkscape.org/namespaces/inkscape">
 <defs>
  <filter x="-0.20377" y="-0.20377" color-interpolation-filters="sRGB" width="1.4075" height="1.4075" id="imagebot_21">
   <feGaussianBlur  stdDeviation="24.74393" id="imagebot_30"/>
  </filter>
  <filter color-interpolation-filters="sRGB" id="imagebot_15">
   <feGaussianBlur  stdDeviation="6.35782" id="imagebot_29"/>
  </filter>
  <filter color-interpolation-filters="sRGB" id="imagebot_9">
   <feGaussianBlur  stdDeviation="6.35782" id="imagebot_28"/>
  </filter>
  <filter color-interpolation-filters="sRGB" id="imagebot_7">
   <feGaussianBlur  stdDeviation="4.03108" id="imagebot_27"/>
  </filter>
  <filter color-interpolation-filters="sRGB" height="1.4075" x="-0.20377" y="-0.20377" width="1.4075" id="imagebot_5">
   <feGaussianBlur  stdDeviation="24.74393" id="imagebot_26"/>
  </filter>
  <filter id="imagebot_24">
   <feGaussianBlur  stdDeviation="18.01002" id="imagebot_25"/>
  </filter>
 </defs>
 <g label="Layer 1" id="imagebot_2">
  <path transform="translate(-2.44141 -4.88281) matrix(1 0 0 1 -23.0612 -30.5443)" label="Layer 1" filter="url(#imagebot_24)" fill="#000000" d="M 366.12 31.844 C 360.631 38.1688 363.01 48.138 361.271 55.918 C 353.106 140.8 344.941 225.678 336.776 310.568 C 288.509 272.086 240.846 232.749 192.086 194.948 C 189.394 192.414 184.834 195.182 186.961 198.604 C 194.231 210.639 204.608 220.723 212.97 232.115 C 243.009 269.507 273.048 306.899 303.086 344.295 C 211.816 353.191 120.456 361.589 29.2465 370.795 C 25.2021 370.641 23.0612 376.287 27.6215 377.451 C 38.5505 380.531 50.3055 379.643 61.5425 381.439 C 142.058 389.193 222.572 396.947 303.092 404.701 C 264.611 452.968 225.273 500.632 187.473 549.391 C 184.945 552.082 187.694 556.641 191.129 554.516 C 203.163 547.246 213.251 536.873 224.646 528.514 C 261.984 498.535 299.322 468.557 336.656 438.578 C 345.488 561.638 354.162 684.719 363.094 807.768 C 363.107 811.462 368.209 814.807 369.875 810.237 C 373.009 798.976 371.725 786.823 373.293 775.233 C 381.299 663.003 389.306 550.773 397.313 438.553 C 445.587 476.936 493.162 516.284 541.903 554.023 C 544.596 556.557 549.155 553.79 547.028 550.367 C 539.759 538.332 529.379 528.249 521.017 516.858 L 430.903 404.708 C 522.173 395.802 613.533 387.393 704.743 378.177 C 708.787 378.331 710.928 372.686 706.368 371.521 C 695.439 368.441 683.684 369.331 672.447 367.536 C 591.931 359.791 511.417 352.047 430.897 344.303 C 469.359 296.009 508.724 248.358 546.517 199.583 C 549.045 196.892 546.295 192.333 542.861 194.458 C 530.826 201.727 520.742 212.105 509.35 220.467 C 471.958 250.505 434.566 280.544 397.17 310.582 C 388.338 219.522 379.829 128.363 370.795 37.3625 C 369.471 35.5015 369.591 30.5443 366.107 31.8625 L 366.12 31.844 Z" id="imagebot_23"/>
  <g label="Layer 1" transform="translate(14.6484 -26.8555) matrix(0.53707 0 0 0.53707 125.512 123.266)" id="imagebot_3">
   <path fill="#ffffff" d="M644.97998,724.10999L413.88998,538.53998L372.04999,1124.19995L330.19998,538.53998L99.11998,724.10999L284.69,493.01999L-150.92999,451.17999L284.69,409.34L99.11998,178.24998L330.19998,363.82001L372.04999,-71.8L413.88998,363.82001L644.97998,178.24998L459.40997,409.34L895.02997,451.17999L459.40997,493.01999L644.97998,724.10999z" id="imagebot_22"/>
   <path filter="url(#imagebot_21)" fill="#ffffff" d="M 517.759 448.186 C 517.759 528.662 452.52 593.896 372.049 593.896 C 291.573 593.896 226.339 528.658 226.339 448.186 C 226.339 367.71 291.577 302.476 372.049 302.476 C 452.525 302.476 517.759 367.714 517.759 448.186 Z" id="imagebot_20"/>
   <g filter="url(#imagebot_15)" transform="translate(1.333)" id="imagebot_14">
    <path fill="#ffffff" d="M 371.43 16.648 L 338.573 408.078 L 368.573 306.648 L 371.43 16.648 L 371.43 16.648 Z" id="imagebot_19"/>
    <path fill="#ffffff" d="M 370 915.22 L 402.857 523.79 L 372.857 625.22 L 370 915.22 L 370 915.22 Z" id="imagebot_18"/>
    <path fill="#ffffff" d="M 820 450.65 L 428.57 417.793 L 530 447.793 L 820 450.65 L 820 450.65 Z" id="imagebot_17"/>
    <path fill="#ffffff" d="M -78.571 449.22 L 312.859 482.077 L 211.429 452.077 L -78.571 449.22 L -78.571 449.22 Z" id="imagebot_16"/>
   </g>
   <g filter="url(#imagebot_9)" transform="matrix(-1 0 0 1 742.76 .000046688)" id="imagebot_8">
    <path fill="#ffffff" d="M 371.43 16.648 L 338.573 408.078 L 368.573 306.648 L 371.43 16.648 L 371.43 16.648 Z" id="imagebot_13"/>
    <path fill="#ffffff" d="M 370 915.22 L 402.857 523.79 L 372.857 625.22 L 370 915.22 L 370 915.22 Z" id="imagebot_12"/>
    <path fill="#ffffff" d="M 820 450.65 L 428.57 417.793 L 530 447.793 L 820 450.65 L 820 450.65 Z" id="imagebot_11"/>
    <path fill="#ffffff" d="M -78.571 449.22 L 312.859 482.077 L 211.429 452.077 L -78.571 449.22 L -78.571 449.22 Z" id="imagebot_10"/>
   </g>
   <path filter="url(#imagebot_7)" fill="#ffffff" transform="matrix(2.0331 0 0 2.0331 893.69 432.24)" d="M-163.64,104.84L-257.78,28.847L-351.52802,102.82L-275.535,8.68L-349.508,-85.068L-255.368,-9.075L-161.62,-83.048L-237.61301,11.092L-163.64,104.84z" id="imagebot_6"/>
   <path filter="url(#imagebot_5)" fill="#ffffff" transform="matrix(.63554 0 0 .63554 135.99 149.2)" d="M517.14001,489.51001C517.14001,569.98602 451.90103,635.22003 371.43002,635.22003C290.95401,635.22003 225.72,569.98199 225.72,489.51001C225.72,409.034 290.95801,343.79999 371.43002,343.79999C451.90601,343.79999 517.14001,409.03799 517.14001,489.51001z" id="imagebot_4"/>
  </g>
  <title>Layer 1</title>
 </g>
 <metadata>image/svg+xmlOpenclipartStar2010-11-18T20:36:40https://openclipart.org/detail/96517/star-by-acspikeacspikeornamentstar</metadata>
</svg>